<svg width="24" height="10" viewBox="0 0 24 10" fill="none" xmlns="http://www.w3.org/2000/svg">
<path d="M6.31833 8.28464H0.72C0.322359 8.28464 0 8.607 0 9.00464C0 9.40228 0.322359 9.72464 0.72 9.72464H10.7893C10.84 7.02647 11.2204 4.67958 11.8974 2.90756C12.4599 1.43559 13.2165 0.440719 14.0876 0C9.93117 0.509156 6.65011 3.97847 6.31833 8.28464Z" fill="#6D6D6D"/>
<path d="M17.0479 3.42162C16.5121 2.01921 15.8008 1.18188 15.1453 1.18188C14.4897 1.18188 13.7784 2.01917 13.2425 3.42162C12.6355 5.01026 12.2806 7.23045 12.2299 9.72471H18.0606C18.0098 7.2304 17.6549 5.01026 17.0479 3.42162Z" fill="#6D6D6D"/>
<path d="M16.203 6.10352e-05C17.0741 0.440686 17.8307 1.43566 18.3931 2.90767C19.0701 4.67969 19.4505 7.02648 19.5011 9.7247H23.28C23.6776 9.7247 24 9.40234 24 9.0047C24 4.37026 20.5886 0.537155 16.203 6.10352e-05Z" fill="#6D6D6D"/>
</svg>
