<svg width="11" height="15" viewBox="0 0 11 15" fill="none" xmlns="http://www.w3.org/2000/svg">
<path d="M10.5642 6.19453C10.1197 5.93613 9.56426 6.12773 9.32364 6.59531L8.13832 9.06826C8.1161 9.11508 8.07732 9.15151 8.02982 9.17017C7.98232 9.18883 7.92966 9.18832 7.88252 9.16875C7.84516 9.15353 7.81314 9.12718 7.79062 9.09312C7.76809 9.05906 7.7561 9.01886 7.75619 8.97773V2.10938C7.75619 1.70186 7.38811 1.40625 6.98937 1.40625C6.59064 1.40625 6.24461 1.70186 6.24461 2.10938V6.69844C6.24557 6.78414 6.21382 6.86685 6.15611 6.929C6.09839 6.99114 6.01926 7.02782 5.93553 7.03125C5.89365 7.03207 5.85203 7.02434 5.8131 7.00851C5.77417 6.99268 5.73872 6.96907 5.70882 6.93906C5.67893 6.90906 5.65518 6.87325 5.63897 6.83375C5.62276 6.79424 5.61441 6.75183 5.61442 6.70898V0.703125C5.61442 0.295605 5.30104 0 4.90231 0C4.50357 0 4.18218 0.295605 4.18218 0.703125V6.69844C4.18314 6.78414 4.15139 6.86685 4.09368 6.929C4.03596 6.99114 3.95683 7.02782 3.8731 7.03125C3.83122 7.03207 3.78959 7.02434 3.75067 7.00851C3.71174 6.99268 3.67629 6.96907 3.64639 6.93906C3.6165 6.90906 3.59275 6.87325 3.57654 6.83375C3.56033 6.79424 3.55198 6.75183 3.55199 6.70898V1.64062C3.55199 1.23311 3.20596 0.9375 2.80722 0.9375C2.40849 0.9375 2.06246 1.2624 2.06246 1.66992V7.16719C2.06342 7.25289 2.03167 7.3356 1.97396 7.39775C1.91624 7.45989 1.83711 7.49657 1.75338 7.5C1.7115 7.50082 1.66988 7.49309 1.63095 7.47726C1.59202 7.46143 1.55657 7.43782 1.52668 7.40781C1.49678 7.37781 1.47303 7.342 1.45682 7.3025C1.44061 7.26299 1.43226 7.22058 1.43227 7.17773V3.51562C1.43227 3.10811 1.11489 2.8125 0.716149 2.8125C0.317412 2.8125 -0.00341002 3.11191 2.73658e-05 3.51562V9.84375C2.73658e-05 13.2835 2.06246 15 4.5832 15H5.04152C7.56227 15 8.35602 13.8398 8.93722 12.4219L10.9054 7.4707C11.095 6.94336 11.0085 6.45264 10.5642 6.19453Z" fill="#6D6D6D"/>
</svg>
