<svg width="17" height="15" viewBox="0 0 17 15" fill="none" xmlns="http://www.w3.org/2000/svg">
<path d="M2.97629 8.85934L1.59254 7.57684C1.36192 8.04934 1.18192 8.54997 1.05817 9.06747C1.09754 9.05622 1.14254 9.05059 1.18192 9.04497C1.77817 8.97184 2.37442 8.90997 2.97629 8.85934Z" fill="#6D6D6D"/>
<path d="M3.89874 8.78062C5.13062 8.685 6.36249 8.63437 7.59437 8.62312L5.83374 6.9975L3.89874 8.78062Z" fill="#6D6D6D"/>
<path d="M8.95001 8.62312C10.1819 8.63437 11.4081 8.685 12.64 8.78062L10.7106 6.9975L8.95001 8.62312Z" fill="#6D6D6D"/>
<path d="M5.45126 5.82188C5.67063 5.61938 6.00251 5.61938 6.21626 5.82188L8.26938 7.7175L10.3281 5.81625C10.5475 5.61938 10.8794 5.61938 11.0931 5.82188L13.1463 7.7175L14.3781 6.57563C13.3713 5.11875 11.8469 4.03875 10.075 3.6C10.3563 3.22875 10.525 2.75625 10.525 2.25C10.525 1.0125 9.51814 0 8.27501 0C7.03189 0 6.02501 1.0125 6.02501 2.25C6.02501 2.75625 6.19376 3.22875 6.47501 3.6C4.70314 4.03875 3.17876 5.11875 2.16626 6.58125L3.39813 7.7175L5.45126 5.82188Z" fill="#6D6D6D"/>
<path d="M15.3682 9.04498C15.4076 9.0506 15.4526 9.05623 15.4919 9.06748C15.3682 8.54435 15.1882 8.04373 14.9576 7.57123L13.5682 8.85935C14.1701 8.90998 14.7719 8.97185 15.3682 9.04498Z" fill="#6D6D6D"/>
<path d="M15.2388 10.1587C10.615 9.60749 5.93502 9.60749 1.31127 10.1587C0.793774 10.2262 0.400024 10.665 0.400024 11.1881V13.1962C0.400024 13.4887 0.529399 13.77 0.748774 13.9669C0.940024 14.1356 1.1819 14.2312 1.43502 14.2312C5.93052 13.7008 10.4946 13.6856 14.9913 14.22C15.2838 14.2594 15.5819 14.1637 15.8013 13.9669C16.0206 13.77 16.15 13.4887 16.15 13.1962V11.1881C16.15 10.665 15.7563 10.2262 15.2388 10.1587Z" fill="#6D6D6D"/>
</svg>
