<svg width="21" height="7" viewBox="0 0 21 7" fill="none" xmlns="http://www.w3.org/2000/svg">
<path fill-rule="evenodd" clip-rule="evenodd" d="M0.875 0C0.391751 0 0 0.391755 0 0.875C0 1.35825 0.391751 1.75 0.875 1.75V3.0576C0.875 5.23495 2.64008 7 4.81742 7C7.4159 7 9.53286 4.9385 9.62211 2.36171C10.19 2.56331 10.81 2.56331 11.3779 2.36171C11.4671 4.9385 13.5841 7 16.1826 7C18.3599 7 20.125 5.23495 20.125 3.0576V1.75C20.6083 1.75 21 1.35825 21 0.875C21 0.391755 20.6083 0 20.125 0H12.25C11.9155 0 11.6249 0.187661 11.4776 0.463444L10.799 0.710212C10.6059 0.780448 10.3941 0.780448 10.201 0.710212L9.52236 0.463444C9.3751 0.187661 9.08451 0 8.75 0H0.875Z" fill="#6D6D6D"/>
</svg>
