<svg width="18" height="16" viewBox="0 0 18 16" fill="none" xmlns="http://www.w3.org/2000/svg">
<path d="M18 2.79073C18 3.54311 17.7375 4.25114 17.2594 4.78327C17.0002 5.07224 16.5812 5.07224 16.322 4.78327C16.0628 4.49429 16.0628 4.0272 16.322 3.73822C16.7907 3.2157 16.7907 2.36577 16.322 1.84324C15.8685 1.33698 15.0769 1.33698 14.6228 1.84324L12.952 3.71309C12.7074 3.68131 12.4701 3.56306 12.299 3.37238C12.114 3.16692 12.0305 2.91268 12 2.68431L13.684 0.799675C14.6407 -0.266805 16.3048 -0.266066 17.2594 0.798936C17.7375 1.33033 18 2.03762 18 2.79073Z" fill="#6D6D6D"/>
<path d="M0.192561 15.9842C0.0786219 16.0444 -0.0443803 15.9214 0.015826 15.8074L8.32948 0.0806409C8.40393 -0.0604879 8.61627 -0.00416567 8.61044 0.15509C8.59231 0.658751 8.66417 1.28347 9.05131 1.66996C9.61259 2.23124 10.4283 2.36848 10.9883 2.19369C11.0944 2.16067 11.2 2.2662 11.1669 2.37237C10.9922 2.933 11.1294 3.74805 11.6907 4.30933C12.252 4.8706 13.0677 5.00785 13.6276 4.83306C13.7338 4.80004 13.8393 4.90556 13.8063 5.01173C13.6315 5.57236 13.7688 6.38742 14.33 6.94869C14.7172 7.33583 15.3412 7.40769 15.8449 7.38956C16.0042 7.38373 16.0605 7.59607 15.9194 7.67052L0.192561 15.9842Z" fill="#6D6D6D"/>
</svg>
