<!-- icon666.com - MILLIONS vector ICONS FREE --><svg version="1.1" id="Capa_1" xmlns="http://www.w3.org/2000/svg" xmlns:xlink="http://www.w3.org/1999/xlink" x="0px" y="0px" viewBox="0 0 409.6 409.6" style="enable-background:new 0 0 409.6 409.6;" xml:space="preserve"><g><g><path d="M175.201,173.45c-15.683-7.199-33.065-11.315-51.466-11.315C55.398,162.135,0,217.533,0,285.865 C0,354.202,55.398,409.6,123.735,409.6c18.401,0,35.779-4.116,51.466-11.315C146.099,369.633,128,329.836,128,285.865 C128,241.9,146.099,202.102,175.201,173.45z" fill="#000000" style="fill: rgb(177, 99, 99);"></path></g></g><g><g><path d="M398.285,234.383c-28.652,29.117-68.449,47.217-112.42,47.217c-43.965,0-83.763-18.099-112.415-47.217 c-7.199,15.698-11.315,33.08-11.315,51.482c0,68.337,55.398,123.735,123.73,123.735c68.337,0,123.735-55.398,123.735-123.735 C409.6,267.464,405.484,250.086,398.285,234.383z" fill="#000000" style="fill: rgb(177, 99, 99);"></path></g></g><g><g><path d="M285.865,0c-18.401,0-35.779,4.116-51.482,11.315c29.117,28.651,47.217,68.449,47.217,112.42 c0,43.965-18.099,83.763-47.217,112.415c15.698,7.199,33.08,11.315,51.482,11.315c68.337,0,123.735-55.398,123.735-123.73 C409.6,55.398,354.202,0,285.865,0z" fill="#000000" style="fill: rgb(177, 99, 99);"></path></g></g><g><g><path d="M123.735,0C55.398,0,0,55.398,0,123.735c0,18.401,4.116,35.779,11.315,51.466C39.967,146.099,79.764,128,123.735,128 c43.965,0,83.763,18.099,112.415,47.201c7.199-15.683,11.315-33.065,11.315-51.466C247.465,55.398,192.067,0,123.735,0z" fill="#000000" style="fill: rgb(177, 99, 99);"></path></g></g></svg>