<svg width="17" height="17" viewBox="0 0 17 17" fill="none" xmlns="http://www.w3.org/2000/svg">
<path d="M8.5 0C3.80579 0 0 3.80579 0 8.5C0 13.1942 3.80579 17 8.5 17C13.1942 17 17 13.1942 17 8.5C17 3.80579 13.1942 0 8.5 0ZM9.94296 11.9609C10.0062 12.021 10.0568 12.0932 10.0918 12.1731C10.1267 12.2531 10.1453 12.3393 10.1464 12.4265C10.1475 12.5138 10.1312 12.6004 10.0983 12.6813C10.0654 12.7621 10.0167 12.8355 9.95494 12.8973C9.89323 12.959 9.81979 13.0077 9.73895 13.0406C9.65811 13.0735 9.5715 13.0898 9.48423 13.0887C9.39697 13.0876 9.31081 13.069 9.23084 13.0341C9.15086 12.9991 9.07869 12.9485 9.01858 12.8853L5.0955 8.96219C4.97298 8.83958 4.90415 8.67334 4.90415 8.5C4.90415 8.32666 4.97298 8.16042 5.0955 8.03781L9.01858 4.11474C9.1422 3.99729 9.30681 3.93278 9.4773 3.93497C9.6478 3.93715 9.8107 4.00585 9.93127 4.12642C10.0518 4.24699 10.1205 4.40989 10.1227 4.58039C10.1249 4.75089 10.0604 4.91549 9.94296 5.03911L6.48248 8.5L9.94296 11.9609Z" fill="#6D6D6D"/>
</svg>
