<svg width="15" height="15" viewBox="0 0 15 15" fill="none" xmlns="http://www.w3.org/2000/svg">
<path d="M7.5 0C3.36454 0 0 3.36454 0 7.5C0 11.6355 3.36454 15 7.5 15C11.6355 15 15 11.6355 15 7.5C15 3.36454 11.6355 0 7.5 0ZM10.2155 9.39988C10.2713 9.45292 10.316 9.5166 10.3468 9.58716C10.3776 9.65773 10.394 9.73375 10.395 9.81075C10.396 9.88775 10.3816 9.96417 10.3525 10.0355C10.3235 10.1068 10.2805 10.1716 10.2261 10.2261C10.1716 10.2805 10.1068 10.3235 10.0355 10.3525C9.96417 10.3816 9.88775 10.396 9.81075 10.395C9.73375 10.394 9.65773 10.3776 9.58716 10.3468C9.5166 10.316 9.45292 10.2713 9.39988 10.2155L7.5 8.31599L5.60012 10.2155C5.49105 10.3191 5.34581 10.376 5.19537 10.3741C5.04493 10.3722 4.90119 10.3116 4.79481 10.2052C4.68842 10.0988 4.6278 9.95507 4.62588 9.80463C4.62395 9.65419 4.68087 9.50895 4.7845 9.39988L6.68401 7.5L4.7845 5.60012C4.68087 5.49105 4.62395 5.34581 4.62588 5.19537C4.6278 5.04493 4.68842 4.90119 4.79481 4.79481C4.90119 4.68842 5.04493 4.6278 5.19537 4.62588C5.34581 4.62395 5.49105 4.68087 5.60012 4.7845L7.5 6.68401L9.39988 4.7845C9.50895 4.68087 9.65419 4.62395 9.80463 4.62588C9.95507 4.6278 10.0988 4.68842 10.2052 4.79481C10.3116 4.90119 10.3722 5.04493 10.3741 5.19537C10.376 5.34581 10.3191 5.49105 10.2155 5.60012L8.31599 7.5L10.2155 9.39988Z" fill="#6D6D6D"/>
</svg>
