<svg width="149" height="149" viewBox="0 0 149 149" fill="none" xmlns="http://www.w3.org/2000/svg">
<circle cx="74.5" cy="74.5" r="74.5" fill="#D9D9D9"/>
<path d="M74.5 54.4851C63.4501 54.4851 54.4851 63.4501 54.4851 74.5C54.4851 85.5499 63.4501 94.5149 74.5 94.5149C85.5499 94.5149 94.515 85.5499 94.515 74.5C94.515 63.4501 85.5499 54.4851 74.5 54.4851ZM73.8746 86.1754C73.4622 86.1754 73.0591 86.0531 72.7163 85.824C72.3734 85.5949 72.1062 85.2693 71.9484 84.8883C71.7906 84.5074 71.7493 84.0882 71.8297 83.6837C71.9102 83.2793 72.1088 82.9078 72.4003 82.6162C72.6919 82.3247 73.0634 82.1261 73.4678 82.0457C73.8723 81.9652 74.2915 82.0065 74.6724 82.1643C75.0534 82.3221 75.379 82.5893 75.6081 82.9322C75.8372 83.275 75.9595 83.6781 75.9595 84.0905C75.9595 84.6434 75.7398 85.1737 75.3488 85.5647C74.9578 85.9557 74.4275 86.1754 73.8746 86.1754ZM77.3605 75.5424C75.6707 76.6766 75.4382 77.7159 75.4382 78.6698C75.4382 79.0568 75.2845 79.4281 75.0108 79.7017C74.7371 79.9754 74.3659 80.1292 73.9788 80.1292C73.5917 80.1292 73.2205 79.9754 72.9468 79.7017C72.6731 79.4281 72.5194 79.0568 72.5194 78.6698C72.5194 76.3858 73.5702 74.5698 75.7322 73.1177C77.742 71.7688 78.8783 70.914 78.8783 69.0345C78.8783 67.7564 78.1486 66.7859 76.6381 66.0677C76.2826 65.8988 75.4914 65.7341 74.5178 65.7456C73.296 65.7612 72.3474 66.0531 71.6166 66.641C70.2385 67.7502 70.1218 68.9573 70.1218 68.975C70.1125 69.1667 70.0656 69.3547 69.9837 69.5282C69.9019 69.7017 69.7866 69.8574 69.6446 69.9864C69.5025 70.1154 69.3364 70.2151 69.1558 70.2799C68.9752 70.3447 68.7836 70.3733 68.592 70.3641C68.4003 70.3549 68.2124 70.308 68.0388 70.2261C67.8653 70.1442 67.7096 70.0289 67.5806 69.8869C67.4516 69.7448 67.3519 69.5788 67.2871 69.3982C67.2223 69.2176 67.1937 69.026 67.2029 68.8343C67.2144 68.581 67.3906 66.2991 69.7851 64.3727C71.0266 63.374 72.6059 62.8549 74.4761 62.8319C75.8 62.8163 77.0436 63.0404 77.8869 63.4386C80.4107 64.6322 81.7971 66.6223 81.7971 69.0345C81.7971 72.5611 79.4402 74.1445 77.3605 75.5424Z" fill="#6D6D6D"/>
</svg>
