<svg width="209" height="243" viewBox="0 0 209 243" fill="none" xmlns="http://www.w3.org/2000/svg">
<rect width="209" height="243" fill="#D9D9D9"/>
<path d="M104 104C94.0625 104 86 112.062 86 122C86 131.938 94.0625 140 104 140C113.938 140 122 131.938 122 122C122 112.062 113.938 104 104 104ZM103.438 132.5C103.067 132.5 102.704 132.39 102.396 132.184C102.087 131.978 101.847 131.685 101.705 131.343C101.563 131 101.526 130.623 101.599 130.259C101.671 129.895 101.849 129.561 102.112 129.299C102.374 129.037 102.708 128.858 103.072 128.786C103.435 128.714 103.812 128.751 104.155 128.893C104.498 129.035 104.79 129.275 104.997 129.583C105.203 129.892 105.312 130.254 105.312 130.625C105.312 131.122 105.115 131.599 104.763 131.951C104.412 132.302 103.935 132.5 103.438 132.5ZM106.573 122.938C105.053 123.958 104.844 124.892 104.844 125.75C104.844 126.098 104.705 126.432 104.459 126.678C104.213 126.924 103.879 127.062 103.531 127.062C103.183 127.062 102.849 126.924 102.603 126.678C102.357 126.432 102.219 126.098 102.219 125.75C102.219 123.696 103.164 122.063 105.108 120.757C106.916 119.544 107.938 118.775 107.938 117.085C107.938 115.935 107.281 115.062 105.923 114.417C105.603 114.265 104.892 114.117 104.016 114.127C102.917 114.141 102.064 114.403 101.407 114.932C100.167 115.93 100.062 117.015 100.062 117.031C100.054 117.204 100.012 117.373 99.9384 117.529C99.8647 117.685 99.7611 117.825 99.6333 117.941C99.5056 118.057 99.3562 118.146 99.1938 118.205C99.0314 118.263 98.8591 118.289 98.6867 118.28C98.5144 118.272 98.3453 118.23 98.1893 118.156C98.0332 118.083 97.8932 117.979 97.7772 117.851C97.6612 117.724 97.5715 117.574 97.5132 117.412C97.4549 117.249 97.4292 117.077 97.4375 116.905C97.4478 116.677 97.6063 114.625 99.7597 112.892C100.876 111.994 102.297 111.527 103.978 111.507C105.169 111.493 106.287 111.694 107.046 112.052C109.316 113.126 110.562 114.915 110.562 117.085C110.562 120.256 108.443 121.68 106.573 122.938Z" fill="#6D6D6D"/>
</svg>
