<svg width="170" height="130" viewBox="0 0 170 130" fill="none" xmlns="http://www.w3.org/2000/svg">
<ellipse cx="41.25" cy="62.9062" rx="41.25" ry="23.7187" fill="#E4E4E4"/>
<ellipse cx="105.188" cy="43.3125" rx="55.6875" ry="43.3125" fill="#E4E4E4"/>
<rect x="41.25" y="39.1875" width="63.9375" height="47.4375" fill="#E4E4E4"/>
<ellipse cx="88.0112" cy="89.3869" rx="27.9487" ry="14.2381" fill="#D9D9D9"/>
<ellipse cx="131.332" cy="77.625" rx="37.7308" ry="26" fill="#D9D9D9"/>
<rect x="88.0112" y="75.1488" width="43.3205" height="28.4762" fill="#D9D9D9"/>
<rect x="69" y="117" width="4" height="13" rx="2" fill="#ABABAB"/>
<rect x="83" y="117" width="4" height="13" rx="2" fill="#ABABAB"/>
<rect x="97" y="117" width="4" height="13" rx="2" fill="#ABABAB"/>
<rect x="137.2" y="79" width="5.6" height="48" rx="2.8" fill="#ABABAB"/>
<rect x="116" y="105.8" width="5.6" height="48" rx="2.8" transform="rotate(-90 116 105.8)" fill="#ABABAB"/>
<rect x="154.991" y="84.0497" width="5.6" height="48" rx="2.8" transform="rotate(45 154.991 84.0497)" fill="#ABABAB"/>
<rect x="121.05" y="88.0094" width="5.6" height="48" rx="2.8" transform="rotate(-45 121.05 88.0094)" fill="#ABABAB"/>
</svg>
