<svg width="170" height="147" viewBox="0 0 170 147" fill="none" xmlns="http://www.w3.org/2000/svg">
<ellipse cx="41.25" cy="62.9062" rx="41.25" ry="23.7187" fill="#E4E4E4"/>
<ellipse cx="105.188" cy="43.3125" rx="55.6875" ry="43.3125" fill="#E4E4E4"/>
<rect x="41.25" y="39.1875" width="63.9375" height="47.4375" fill="#E4E4E4"/>
<ellipse cx="88.0112" cy="89.3869" rx="27.9487" ry="14.2381" fill="#D9D9D9"/>
<ellipse cx="131.332" cy="77.625" rx="37.7308" ry="26" fill="#D9D9D9"/>
<rect x="88.0115" y="75.1488" width="43.3205" height="28.4762" fill="#D9D9D9"/>
<rect x="26.5" y="96" width="6" height="21" rx="3" transform="rotate(30 26.5 96)" fill="#ABABAB"/>
<rect x="49.5" y="93" width="6" height="21" rx="3" transform="rotate(30 49.5 93)" fill="#ABABAB"/>
<rect x="66.0415" y="119.67" width="6" height="22.8671" rx="3" transform="rotate(30 66.0415 119.67)" fill="#ABABAB"/>
<rect x="89.5859" y="115.727" width="6" height="23.8518" rx="3" transform="rotate(30 89.5859 115.727)" fill="#ABABAB"/>
<rect x="132.894" y="119.592" width="6" height="27.7871" rx="3" transform="rotate(30 132.894 119.592)" fill="#ABABAB"/>
<rect x="116.926" y="110" width="6" height="18.6714" rx="3" transform="rotate(30 116.926 110)" fill="#ABABAB"/>
</svg>
