<svg width="174" height="123" viewBox="0 0 174 123" fill="none" xmlns="http://www.w3.org/2000/svg">
<ellipse cx="41.25" cy="62.9062" rx="41.25" ry="23.7187" fill="#E4E4E4"/>
<ellipse cx="105.188" cy="43.3125" rx="55.6875" ry="43.3125" fill="#E4E4E4"/>
<rect x="41.25" y="39.1875" width="63.9375" height="47.4375" fill="#E4E4E4"/>
<ellipse cx="88.0112" cy="89.3868" rx="27.9487" ry="14.2381" fill="#D9D9D9"/>
<ellipse cx="131.332" cy="77.625" rx="37.7308" ry="26" fill="#D9D9D9"/>
<rect x="88.0112" y="75.1487" width="43.3205" height="28.4762" fill="#D9D9D9"/>
<rect x="26.5" y="96" width="6" height="21" rx="3" transform="rotate(30 26.5 96)" fill="#ABABAB"/>
<rect x="49.5" y="93" width="6" height="21" rx="3" transform="rotate(30 49.5 93)" fill="#ABABAB"/>
<rect x="147.2" y="75" width="5.6" height="48" rx="2.8" fill="#ABABAB"/>
<rect x="126" y="101.8" width="5.6" height="48" rx="2.8" transform="rotate(-90 126 101.8)" fill="#ABABAB"/>
<rect x="164.991" y="80.0496" width="5.6" height="48" rx="2.8" transform="rotate(45 164.991 80.0496)" fill="#ABABAB"/>
<rect x="131.049" y="84.0095" width="5.6" height="48" rx="2.8" transform="rotate(-45 131.049 84.0095)" fill="#ABABAB"/>
</svg>
