<svg width="177" height="143" viewBox="0 0 177 143" fill="none" xmlns="http://www.w3.org/2000/svg">
<ellipse cx="41.25" cy="62.9062" rx="41.25" ry="23.7187" fill="#E4E4E4"/>
<ellipse cx="105.188" cy="43.3125" rx="55.6875" ry="43.3125" fill="#E4E4E4"/>
<rect x="41.25" y="39.1875" width="63.9375" height="47.4375" fill="#E4E4E4"/>
<ellipse cx="88.0112" cy="89.3868" rx="27.9487" ry="14.2381" fill="#D9D9D9"/>
<ellipse cx="131.332" cy="77.625" rx="37.7308" ry="26" fill="#D9D9D9"/>
<rect x="88.0112" y="75.1487" width="43.3205" height="28.4762" fill="#D9D9D9"/>
<rect x="26.5" y="96" width="6" height="21" rx="3" transform="rotate(30 26.5 96)" fill="#ABABAB"/>
<rect x="49.5" y="93" width="6" height="21" rx="3" transform="rotate(30 49.5 93)" fill="#ABABAB"/>
<rect x="66.0415" y="119.67" width="6" height="22.8671" rx="3" transform="rotate(30 66.0415 119.67)" fill="#ABABAB"/>
<rect x="89.5859" y="115.727" width="6" height="23.8518" rx="3" transform="rotate(30 89.5859 115.727)" fill="#ABABAB"/>
<rect x="150.2" y="78" width="5.6" height="48" rx="2.8" fill="#ABABAB"/>
<rect x="129" y="104.8" width="5.6" height="48" rx="2.8" transform="rotate(-90 129 104.8)" fill="#ABABAB"/>
<rect x="167.991" y="83.0496" width="5.6" height="48" rx="2.8" transform="rotate(45 167.991 83.0496)" fill="#ABABAB"/>
<rect x="134.05" y="87.0095" width="5.6" height="48" rx="2.8" transform="rotate(-45 134.05 87.0095)" fill="#ABABAB"/>
</svg>
