<svg width="170" height="153" viewBox="0 0 170 153" fill="none" xmlns="http://www.w3.org/2000/svg">
<ellipse cx="41.25" cy="62.9062" rx="41.25" ry="23.7187" fill="#E4E4E4"/>
<ellipse cx="105.188" cy="43.3125" rx="55.6875" ry="43.3125" fill="#E4E4E4"/>
<rect x="41.25" y="39.1875" width="63.9375" height="47.4375" fill="#E4E4E4"/>
<ellipse cx="88.0112" cy="89.3868" rx="27.9487" ry="14.2381" fill="#D9D9D9"/>
<ellipse cx="131.332" cy="77.625" rx="37.7308" ry="26" fill="#D9D9D9"/>
<rect x="88.0112" y="75.1487" width="43.3205" height="28.4762" fill="#D9D9D9"/>
<rect x="33.3667" y="94" width="3.26667" height="28" rx="1.63333" fill="#ABABAB"/>
<rect x="21" y="109.633" width="3.26667" height="28" rx="1.63333" transform="rotate(-90 21 109.633)" fill="#ABABAB"/>
<rect x="43.7446" y="96.9456" width="3.26667" height="28" rx="1.63333" transform="rotate(45 43.7446 96.9456)" fill="#ABABAB"/>
<rect x="23.9453" y="99.2555" width="3.26667" height="28" rx="1.63333" transform="rotate(-45 23.9453 99.2555)" fill="#ABABAB"/>
<rect x="77.6665" y="113" width="4.66667" height="40" rx="2.33333" fill="#ABABAB"/>
<rect x="60" y="135.333" width="4.66667" height="40" rx="2.33333" transform="rotate(-90 60 135.333)" fill="#ABABAB"/>
<rect x="92.4922" y="117.208" width="4.66667" height="40" rx="2.33333" transform="rotate(45 92.4922 117.208)" fill="#ABABAB"/>
<rect x="64.2075" y="120.508" width="4.66667" height="40" rx="2.33333" transform="rotate(-45 64.2075 120.508)" fill="#ABABAB"/>
</svg>
