<svg width="170" height="147" viewBox="0 0 170 147" fill="none" xmlns="http://www.w3.org/2000/svg">
<ellipse cx="41.25" cy="62.9062" rx="41.25" ry="23.7187" fill="#E4E4E4"/>
<ellipse cx="105.188" cy="43.3125" rx="55.6875" ry="43.3125" fill="#E4E4E4"/>
<rect x="41.25" y="39.1875" width="63.9375" height="47.4375" fill="#E4E4E4"/>
<ellipse cx="88.0112" cy="89.3868" rx="27.9487" ry="14.2381" fill="#D9D9D9"/>
<ellipse cx="131.332" cy="77.625" rx="37.7308" ry="26" fill="#D9D9D9"/>
<rect x="88.0115" y="75.1487" width="43.3205" height="28.4762" fill="#D9D9D9"/>
<rect x="39.3665" y="93" width="3.26667" height="28" rx="1.63333" fill="#ABABAB"/>
<rect x="27" y="108.633" width="3.26667" height="28" rx="1.63333" transform="rotate(-90 27 108.633)" fill="#ABABAB"/>
<rect x="49.7446" y="95.9456" width="3.26667" height="28" rx="1.63333" transform="rotate(45 49.7446 95.9456)" fill="#ABABAB"/>
<rect x="29.9453" y="98.2555" width="3.26667" height="28" rx="1.63333" transform="rotate(-45 29.9453 98.2555)" fill="#ABABAB"/>
<rect x="79.6667" y="107" width="4.66667" height="40" rx="2.33333" fill="#ABABAB"/>
<rect x="62" y="129.333" width="4.66667" height="40" rx="2.33333" transform="rotate(-90 62 129.333)" fill="#ABABAB"/>
<rect x="94.4924" y="111.208" width="4.66667" height="40" rx="2.33333" transform="rotate(45 94.4924 111.208)" fill="#ABABAB"/>
<rect x="66.2075" y="114.508" width="4.66667" height="40" rx="2.33333" transform="rotate(-45 66.2075 114.508)" fill="#ABABAB"/>
<rect x="134.2" y="80" width="5.6" height="48" rx="2.8" fill="#ABABAB"/>
<rect x="113" y="106.8" width="5.6" height="48" rx="2.8" transform="rotate(-90 113 106.8)" fill="#ABABAB"/>
<rect x="151.991" y="85.0496" width="5.6" height="48" rx="2.8" transform="rotate(45 151.991 85.0496)" fill="#ABABAB"/>
<rect x="118.05" y="89.0095" width="5.6" height="48" rx="2.8" transform="rotate(-45 118.05 89.0095)" fill="#ABABAB"/>
</svg>
