<svg width="176" height="132" viewBox="0 0 176 132" fill="none" xmlns="http://www.w3.org/2000/svg">
<ellipse cx="41.25" cy="62.9062" rx="41.25" ry="23.7187" fill="#E4E4E4"/>
<ellipse cx="105.188" cy="43.3125" rx="55.6875" ry="43.3125" fill="#E4E4E4"/>
<rect x="41.25" y="39.1875" width="63.9375" height="47.4375" fill="#E4E4E4"/>
<ellipse cx="88.0112" cy="89.3869" rx="27.9487" ry="14.2381" fill="#D9D9D9"/>
<ellipse cx="131.332" cy="77.625" rx="37.7308" ry="26" fill="#D9D9D9"/>
<rect x="88.0112" y="75.1488" width="43.3205" height="28.4762" fill="#D9D9D9"/>
<rect x="26.5" y="96" width="6" height="21" rx="3" transform="rotate(30 26.5 96)" fill="#ABABAB"/>
<rect x="49.5" y="93" width="6" height="21" rx="3" transform="rotate(30 49.5 93)" fill="#ABABAB"/>
<path d="M167.812 88.5629C163.531 84.2566 157.88 81.5814 151.835 80.9996C151.651 80.9805 151.477 80.9079 151.334 80.7909C151.191 80.6739 151.085 80.5175 151.029 80.341C150.919 79.9546 150.685 79.6148 150.364 79.3728C150.043 79.1309 149.652 79 149.25 79C148.848 79 148.457 79.1309 148.136 79.3728C147.815 79.6148 147.582 79.9546 147.471 80.341C147.416 80.5175 147.31 80.6739 147.167 80.7909C147.023 80.9079 146.849 80.9805 146.665 80.9996C140.192 81.6403 134.187 84.6617 129.814 89.4781C125.442 94.2946 123.014 100.563 123 107.068C122.995 107.388 123.07 107.704 123.218 107.988C123.366 108.272 123.583 108.515 123.849 108.693C124.209 108.929 124.64 109.033 125.068 108.989C125.496 108.945 125.896 108.754 126.201 108.45C127.34 107.311 128.884 106.671 130.495 106.669C132.105 106.668 133.651 107.306 134.792 108.443C134.964 108.618 135.169 108.758 135.396 108.854C135.623 108.95 135.866 109 136.112 109.002C136.358 109.004 136.602 108.957 136.83 108.864C137.058 108.771 137.265 108.634 137.44 108.46C138.686 107.221 140.335 106.469 142.087 106.343C143.84 106.217 145.579 106.724 146.99 107.772C147.109 107.862 147.207 107.979 147.274 108.113C147.34 108.247 147.375 108.395 147.375 108.545V125.82C147.375 126.828 146.602 127.695 145.595 127.747C145.341 127.76 145.087 127.721 144.849 127.633C144.611 127.544 144.393 127.408 144.208 127.233C144.024 127.058 143.877 126.847 143.777 126.614C143.677 126.38 143.625 126.128 143.625 125.874C143.625 125.625 143.576 125.379 143.479 125.149C143.383 124.919 143.242 124.711 143.064 124.536C142.886 124.362 142.676 124.224 142.444 124.132C142.213 124.04 141.965 123.995 141.716 123.999C140.662 124.018 139.853 124.95 139.876 126.003C139.911 127.459 140.509 128.845 141.544 129.87C142.579 130.895 143.971 131.479 145.428 131.499C148.578 131.539 151.125 128.929 151.125 125.779V108.545C151.125 108.395 151.16 108.247 151.227 108.113C151.294 107.979 151.391 107.862 151.511 107.772C152.919 106.726 154.656 106.218 156.406 106.343C158.156 106.467 159.804 107.214 161.05 108.45C161.401 108.801 161.878 108.998 162.375 108.998C162.872 108.998 163.349 108.801 163.701 108.45C164.841 107.31 166.388 106.67 168 106.67C169.613 106.67 171.159 107.31 172.3 108.45C172.595 108.745 172.981 108.934 173.396 108.985C173.811 109.036 174.231 108.947 174.59 108.732C174.873 108.557 175.105 108.312 175.265 108.02C175.424 107.728 175.506 107.399 175.5 107.067C175.502 103.628 174.824 100.223 173.504 97.047C172.184 93.8713 170.25 90.988 167.812 88.5629Z" fill="#B16363"/>
</svg>
