<svg width="170" height="143" viewBox="0 0 170 143" fill="none" xmlns="http://www.w3.org/2000/svg">
<ellipse cx="41.25" cy="62.9062" rx="41.25" ry="23.7187" fill="#E4E4E4"/>
<ellipse cx="105.188" cy="43.3125" rx="55.6875" ry="43.3125" fill="#E4E4E4"/>
<rect x="41.25" y="39.1875" width="63.9375" height="47.4375" fill="#E4E4E4"/>
<ellipse cx="88.0112" cy="89.3869" rx="27.9487" ry="14.2381" fill="#D9D9D9"/>
<ellipse cx="131.332" cy="77.625" rx="37.7308" ry="26" fill="#D9D9D9"/>
<rect x="88.0112" y="75.1488" width="43.3205" height="28.4762" fill="#D9D9D9"/>
<rect x="26.5" y="96" width="6" height="21" rx="3" transform="rotate(30 26.5 96)" fill="#ABABAB"/>
<rect x="49.5" y="93" width="6" height="21" rx="3" transform="rotate(30 49.5 93)" fill="#ABABAB"/>
<rect x="66.0415" y="119.67" width="6" height="22.8671" rx="3" transform="rotate(30 66.0415 119.67)" fill="#ABABAB"/>
<rect x="89.5859" y="115.727" width="6" height="23.8518" rx="3" transform="rotate(30 89.5859 115.727)" fill="#ABABAB"/>
<path d="M160.812 90.5629C156.531 86.2566 150.88 83.5814 144.835 82.9996C144.651 82.9805 144.477 82.9079 144.334 82.7909C144.191 82.6739 144.085 82.5175 144.029 82.341C143.919 81.9546 143.685 81.6148 143.364 81.3728C143.043 81.1309 142.652 81 142.25 81C141.848 81 141.457 81.1309 141.136 81.3728C140.815 81.6148 140.582 81.9546 140.471 82.341C140.416 82.5175 140.31 82.6739 140.167 82.7909C140.023 82.9079 139.849 82.9805 139.665 82.9996C133.192 83.6403 127.187 86.6617 122.814 91.4781C118.442 96.2946 116.014 102.563 116 109.068C115.995 109.388 116.07 109.704 116.218 109.988C116.366 110.272 116.583 110.515 116.849 110.693C117.209 110.929 117.64 111.033 118.068 110.989C118.496 110.945 118.896 110.754 119.201 110.45C120.34 109.311 121.884 108.671 123.495 108.669C125.105 108.668 126.651 109.306 127.792 110.443C127.964 110.618 128.169 110.758 128.396 110.854C128.623 110.95 128.866 111 129.112 111.002C129.358 111.004 129.602 110.957 129.83 110.864C130.058 110.771 130.265 110.634 130.44 110.46C131.686 109.221 133.335 108.469 135.087 108.343C136.84 108.217 138.579 108.724 139.99 109.772C140.109 109.862 140.207 109.979 140.274 110.113C140.34 110.247 140.375 110.395 140.375 110.545V127.82C140.375 128.828 139.602 129.695 138.595 129.747C138.341 129.76 138.087 129.721 137.849 129.633C137.611 129.544 137.393 129.408 137.208 129.233C137.024 129.058 136.877 128.847 136.777 128.614C136.677 128.38 136.625 128.128 136.625 127.874C136.625 127.625 136.576 127.379 136.479 127.149C136.383 126.919 136.242 126.711 136.064 126.536C135.886 126.362 135.676 126.224 135.444 126.132C135.213 126.04 134.965 125.995 134.716 125.999C133.662 126.018 132.853 126.95 132.876 128.003C132.911 129.459 133.509 130.845 134.544 131.87C135.579 132.895 136.971 133.479 138.428 133.499C141.578 133.539 144.125 130.929 144.125 127.779V110.545C144.125 110.395 144.16 110.247 144.227 110.113C144.294 109.979 144.391 109.862 144.511 109.772C145.919 108.726 147.656 108.218 149.406 108.343C151.156 108.467 152.804 109.214 154.05 110.45C154.401 110.801 154.878 110.998 155.375 110.998C155.872 110.998 156.349 110.801 156.701 110.45C157.841 109.31 159.388 108.67 161 108.67C162.613 108.67 164.159 109.31 165.3 110.45C165.595 110.745 165.981 110.934 166.396 110.985C166.811 111.036 167.231 110.947 167.59 110.732C167.873 110.557 168.105 110.312 168.265 110.02C168.424 109.728 168.506 109.399 168.5 109.067C168.502 105.628 167.824 102.223 166.504 99.047C165.184 95.8713 163.25 92.988 160.812 90.5629Z" fill="#B16363"/>
</svg>
