<svg width="188" height="147" viewBox="0 0 188 147" fill="none" xmlns="http://www.w3.org/2000/svg">
<ellipse cx="41.25" cy="62.9062" rx="41.25" ry="23.7187" fill="#E4E4E4"/>
<ellipse cx="105.188" cy="43.3125" rx="55.6875" ry="43.3125" fill="#E4E4E4"/>
<rect x="41.25" y="39.1875" width="63.9375" height="47.4375" fill="#E4E4E4"/>
<ellipse cx="88.0112" cy="89.3869" rx="27.9487" ry="14.2381" fill="#D9D9D9"/>
<ellipse cx="131.332" cy="77.625" rx="37.7308" ry="26" fill="#D9D9D9"/>
<rect x="88.0115" y="75.1488" width="43.3205" height="28.4762" fill="#D9D9D9"/>
<rect x="26.5" y="96" width="6" height="21" rx="3" transform="rotate(30 26.5 96)" fill="#ABABAB"/>
<rect x="49.5" y="93" width="6" height="21" rx="3" transform="rotate(30 49.5 93)" fill="#ABABAB"/>
<rect x="66.0415" y="119.67" width="6" height="22.8671" rx="3" transform="rotate(30 66.0415 119.67)" fill="#ABABAB"/>
<rect x="89.5859" y="115.727" width="6" height="23.8518" rx="3" transform="rotate(30 89.5859 115.727)" fill="#ABABAB"/>
<rect x="132.894" y="119.592" width="6" height="27.7871" rx="3" transform="rotate(30 132.894 119.592)" fill="#ABABAB"/>
<rect x="116.926" y="110" width="6" height="18.6714" rx="3" transform="rotate(30 116.926 110)" fill="#ABABAB"/>
<path d="M179.812 85.5629C175.531 81.2566 169.88 78.5814 163.835 77.9996C163.651 77.9805 163.477 77.9079 163.334 77.7909C163.191 77.6739 163.085 77.5175 163.029 77.341C162.919 76.9546 162.685 76.6148 162.364 76.3728C162.043 76.1309 161.652 76 161.25 76C160.848 76 160.457 76.1309 160.136 76.3728C159.815 76.6148 159.582 76.9546 159.471 77.341C159.416 77.5175 159.31 77.6739 159.167 77.7909C159.023 77.9079 158.849 77.9805 158.665 77.9996C152.192 78.6403 146.187 81.6617 141.814 86.4781C137.442 91.2946 135.014 97.5629 135 104.068C134.995 104.388 135.07 104.704 135.218 104.988C135.366 105.272 135.583 105.515 135.849 105.693C136.209 105.929 136.64 106.033 137.068 105.989C137.496 105.945 137.896 105.754 138.201 105.45C139.34 104.311 140.884 103.671 142.495 103.669C144.105 103.668 145.651 104.306 146.792 105.443C146.964 105.618 147.169 105.758 147.396 105.854C147.623 105.95 147.866 106 148.112 106.002C148.358 106.004 148.602 105.957 148.83 105.864C149.058 105.771 149.265 105.634 149.44 105.46C150.686 104.221 152.335 103.469 154.087 103.343C155.84 103.217 157.579 103.724 158.99 104.772C159.109 104.862 159.207 104.979 159.274 105.113C159.34 105.247 159.375 105.395 159.375 105.545V122.82C159.375 123.828 158.602 124.695 157.595 124.747C157.341 124.76 157.087 124.721 156.849 124.633C156.611 124.544 156.393 124.408 156.208 124.233C156.024 124.058 155.877 123.847 155.777 123.614C155.677 123.38 155.625 123.128 155.625 122.874C155.625 122.625 155.576 122.379 155.479 122.149C155.383 121.919 155.242 121.711 155.064 121.536C154.886 121.362 154.676 121.224 154.444 121.132C154.213 121.04 153.965 120.995 153.716 120.999C152.662 121.018 151.853 121.95 151.876 123.003C151.911 124.459 152.509 125.845 153.544 126.87C154.579 127.895 155.971 128.479 157.428 128.499C160.578 128.539 163.125 125.929 163.125 122.779V105.545C163.125 105.395 163.16 105.247 163.227 105.113C163.294 104.979 163.391 104.862 163.511 104.772C164.919 103.726 166.656 103.218 168.406 103.343C170.156 103.467 171.804 104.214 173.05 105.45C173.401 105.801 173.878 105.998 174.375 105.998C174.872 105.998 175.349 105.801 175.701 105.45C176.841 104.31 178.388 103.67 180 103.67C181.613 103.67 183.159 104.31 184.3 105.45C184.595 105.745 184.981 105.934 185.396 105.985C185.811 106.036 186.231 105.947 186.59 105.732C186.873 105.557 187.105 105.312 187.265 105.02C187.424 104.728 187.506 104.399 187.5 104.067C187.502 100.628 186.824 97.2226 185.504 94.047C184.184 90.8713 182.25 87.988 179.812 85.5629Z" fill="#B16363"/>
</svg>
