<svg width="175" height="130" viewBox="0 0 175 130" fill="none" xmlns="http://www.w3.org/2000/svg">
<ellipse cx="41.25" cy="62.9062" rx="41.25" ry="23.7187" fill="#E4E4E4"/>
<ellipse cx="105.188" cy="43.3125" rx="55.6875" ry="43.3125" fill="#E4E4E4"/>
<rect x="41.25" y="39.1875" width="63.9375" height="47.4375" fill="#E4E4E4"/>
<ellipse cx="88.0112" cy="89.3869" rx="27.9487" ry="14.2381" fill="#D9D9D9"/>
<ellipse cx="131.332" cy="77.625" rx="37.7308" ry="26" fill="#D9D9D9"/>
<rect x="88.0112" y="75.1488" width="43.3205" height="28.4762" fill="#D9D9D9"/>
<rect x="33.3667" y="94" width="3.26667" height="28" rx="1.63333" fill="#ABABAB"/>
<rect x="21" y="109.633" width="3.26667" height="28" rx="1.63333" transform="rotate(-90 21 109.633)" fill="#ABABAB"/>
<rect x="43.7446" y="96.9456" width="3.26667" height="28" rx="1.63333" transform="rotate(45 43.7446 96.9456)" fill="#ABABAB"/>
<rect x="23.9453" y="99.2555" width="3.26667" height="28" rx="1.63333" transform="rotate(-45 23.9453 99.2555)" fill="#ABABAB"/>
<path d="M166.812 86.5629C162.531 82.2566 156.88 79.5814 150.835 78.9996C150.651 78.9805 150.477 78.9079 150.334 78.7909C150.191 78.6739 150.085 78.5175 150.029 78.341C149.919 77.9546 149.685 77.6148 149.364 77.3728C149.043 77.1309 148.652 77 148.25 77C147.848 77 147.457 77.1309 147.136 77.3728C146.815 77.6148 146.582 77.9546 146.471 78.341C146.416 78.5175 146.31 78.6739 146.167 78.7909C146.023 78.9079 145.849 78.9805 145.665 78.9996C139.192 79.6403 133.187 82.6617 128.814 87.4781C124.442 92.2946 122.014 98.5629 122 105.068C121.995 105.388 122.07 105.704 122.218 105.988C122.366 106.272 122.583 106.515 122.849 106.693C123.209 106.929 123.64 107.033 124.068 106.989C124.496 106.945 124.896 106.754 125.201 106.45C126.34 105.311 127.884 104.671 129.495 104.669C131.105 104.668 132.651 105.306 133.792 106.443C133.964 106.618 134.169 106.758 134.396 106.854C134.623 106.95 134.866 107 135.112 107.002C135.358 107.004 135.602 106.957 135.83 106.864C136.058 106.771 136.265 106.634 136.44 106.46C137.686 105.221 139.335 104.469 141.087 104.343C142.84 104.217 144.579 104.724 145.99 105.772C146.109 105.862 146.207 105.979 146.274 106.113C146.34 106.247 146.375 106.395 146.375 106.545V123.82C146.375 124.828 145.602 125.695 144.595 125.747C144.341 125.76 144.087 125.721 143.849 125.633C143.611 125.544 143.393 125.408 143.208 125.233C143.024 125.058 142.877 124.847 142.777 124.614C142.677 124.38 142.625 124.128 142.625 123.874C142.625 123.625 142.576 123.379 142.479 123.149C142.383 122.919 142.242 122.711 142.064 122.536C141.886 122.362 141.676 122.224 141.444 122.132C141.213 122.04 140.965 121.995 140.716 121.999C139.662 122.018 138.853 122.95 138.876 124.003C138.911 125.459 139.509 126.845 140.544 127.87C141.579 128.895 142.971 129.479 144.428 129.499C147.578 129.539 150.125 126.929 150.125 123.779V106.545C150.125 106.395 150.16 106.247 150.227 106.113C150.294 105.979 150.391 105.862 150.511 105.772C151.919 104.726 153.656 104.218 155.406 104.343C157.156 104.467 158.804 105.214 160.05 106.45C160.401 106.801 160.878 106.998 161.375 106.998C161.872 106.998 162.349 106.801 162.701 106.45C163.841 105.31 165.388 104.67 167 104.67C168.613 104.67 170.159 105.31 171.3 106.45C171.595 106.745 171.981 106.934 172.396 106.985C172.811 107.036 173.231 106.947 173.59 106.732C173.873 106.557 174.105 106.312 174.265 106.02C174.424 105.728 174.506 105.399 174.5 105.067C174.502 101.628 173.824 98.2226 172.504 95.047C171.184 91.8713 169.25 88.988 166.812 86.5629Z" fill="#B16363"/>
</svg>
