<svg width="180" height="153" viewBox="0 0 180 153" fill="none" xmlns="http://www.w3.org/2000/svg">
<ellipse cx="41.25" cy="62.9062" rx="41.25" ry="23.7187" fill="#E4E4E4"/>
<ellipse cx="105.188" cy="43.3125" rx="55.6875" ry="43.3125" fill="#E4E4E4"/>
<rect x="41.25" y="39.1875" width="63.9375" height="47.4375" fill="#E4E4E4"/>
<ellipse cx="88.0112" cy="89.3869" rx="27.9487" ry="14.2381" fill="#D9D9D9"/>
<ellipse cx="131.332" cy="77.625" rx="37.7308" ry="26" fill="#D9D9D9"/>
<rect x="88.0112" y="75.1488" width="43.3205" height="28.4762" fill="#D9D9D9"/>
<rect x="33.3667" y="94" width="3.26667" height="28" rx="1.63333" fill="#ABABAB"/>
<rect x="21" y="109.633" width="3.26667" height="28" rx="1.63333" transform="rotate(-90 21 109.633)" fill="#ABABAB"/>
<rect x="43.7446" y="96.9456" width="3.26667" height="28" rx="1.63333" transform="rotate(45 43.7446 96.9456)" fill="#ABABAB"/>
<rect x="23.9453" y="99.2555" width="3.26667" height="28" rx="1.63333" transform="rotate(-45 23.9453 99.2555)" fill="#ABABAB"/>
<rect x="77.6665" y="113" width="4.66667" height="40" rx="2.33333" fill="#ABABAB"/>
<rect x="60" y="135.333" width="4.66667" height="40" rx="2.33333" transform="rotate(-90 60 135.333)" fill="#ABABAB"/>
<rect x="92.4922" y="117.208" width="4.66667" height="40" rx="2.33333" transform="rotate(45 92.4922 117.208)" fill="#ABABAB"/>
<rect x="64.2075" y="120.508" width="4.66667" height="40" rx="2.33333" transform="rotate(-45 64.2075 120.508)" fill="#ABABAB"/>
<path d="M171.812 84.5629C167.531 80.2566 161.88 77.5814 155.835 76.9996C155.651 76.9805 155.477 76.9079 155.334 76.7909C155.191 76.6739 155.085 76.5175 155.029 76.341C154.919 75.9546 154.685 75.6148 154.364 75.3728C154.043 75.1309 153.652 75 153.25 75C152.848 75 152.457 75.1309 152.136 75.3728C151.815 75.6148 151.582 75.9546 151.471 76.341C151.416 76.5175 151.31 76.6739 151.167 76.7909C151.023 76.9079 150.849 76.9805 150.665 76.9996C144.192 77.6403 138.187 80.6617 133.814 85.4781C129.442 90.2946 127.014 96.5629 127 103.068C126.995 103.388 127.07 103.704 127.218 103.988C127.366 104.272 127.583 104.515 127.849 104.693C128.209 104.929 128.64 105.033 129.068 104.989C129.496 104.945 129.896 104.754 130.201 104.45C131.34 103.311 132.884 102.671 134.495 102.669C136.105 102.668 137.651 103.306 138.792 104.443C138.964 104.618 139.169 104.758 139.396 104.854C139.623 104.95 139.866 105 140.112 105.002C140.358 105.004 140.602 104.957 140.83 104.864C141.058 104.771 141.265 104.634 141.44 104.46C142.686 103.221 144.335 102.469 146.087 102.343C147.84 102.217 149.579 102.724 150.99 103.772C151.109 103.862 151.207 103.979 151.274 104.113C151.34 104.247 151.375 104.395 151.375 104.545V121.82C151.375 122.828 150.602 123.695 149.595 123.747C149.341 123.76 149.087 123.721 148.849 123.633C148.611 123.544 148.393 123.408 148.208 123.233C148.024 123.058 147.877 122.847 147.777 122.614C147.677 122.38 147.625 122.128 147.625 121.874C147.625 121.625 147.576 121.379 147.479 121.149C147.383 120.919 147.242 120.711 147.064 120.536C146.886 120.362 146.676 120.224 146.444 120.132C146.213 120.04 145.965 119.995 145.716 119.999C144.662 120.018 143.853 120.95 143.876 122.003C143.911 123.459 144.509 124.845 145.544 125.87C146.579 126.895 147.971 127.479 149.428 127.499C152.578 127.539 155.125 124.929 155.125 121.779V104.545C155.125 104.395 155.16 104.247 155.227 104.113C155.294 103.979 155.391 103.862 155.511 103.772C156.919 102.726 158.656 102.218 160.406 102.343C162.156 102.467 163.804 103.214 165.05 104.45C165.401 104.801 165.878 104.998 166.375 104.998C166.872 104.998 167.349 104.801 167.701 104.45C168.841 103.31 170.388 102.67 172 102.67C173.613 102.67 175.159 103.31 176.3 104.45C176.595 104.745 176.981 104.934 177.396 104.985C177.811 105.036 178.231 104.947 178.59 104.732C178.873 104.557 179.105 104.312 179.265 104.02C179.424 103.728 179.506 103.399 179.5 103.067C179.502 99.6279 178.824 96.2226 177.504 93.047C176.184 89.8713 174.25 86.988 171.812 84.5629Z" fill="#B16363"/>
</svg>
