<svg width="170" height="140" viewBox="0 0 170 140" fill="none" xmlns="http://www.w3.org/2000/svg">
<ellipse cx="41.25" cy="62.9062" rx="41.25" ry="23.7187" fill="#E4E4E4"/>
<ellipse cx="105.188" cy="43.3125" rx="55.6875" ry="43.3125" fill="#E4E4E4"/>
<rect x="41.25" y="39.1875" width="63.9375" height="47.4375" fill="#E4E4E4"/>
<ellipse cx="88.0112" cy="89.3869" rx="27.9487" ry="14.2381" fill="#D9D9D9"/>
<ellipse cx="131.332" cy="77.625" rx="37.7308" ry="26" fill="#D9D9D9"/>
<rect x="88.0112" y="75.1488" width="43.3205" height="28.4762" fill="#D9D9D9"/>
<path d="M45.5238 140C45.3715 140 45.221 139.945 45.0829 139.839C44.9448 139.733 44.8224 139.579 44.7244 139.386C44.6264 139.194 44.5551 138.969 44.5156 138.726C44.476 138.483 44.4691 138.229 44.4954 137.982V137.971L46.0926 123.501H39.909C39.7374 123.501 39.5692 123.421 39.4241 123.27C39.2789 123.119 39.1626 122.903 39.0887 122.647C39.0147 122.392 38.9862 122.107 39.0062 121.826C39.0263 121.544 39.0943 121.278 39.2022 121.058L51.6551 95.6593C51.7969 95.3624 51.9937 95.1503 52.2154 95.0554C52.4371 94.9605 52.6716 94.988 52.8829 95.1338C53.0942 95.2795 53.2708 95.5355 53.3857 95.8625C53.5005 96.1895 53.5473 96.5695 53.5188 96.9445C53.5188 96.9726 53.5142 96.9998 53.5114 97.0279L51.9086 111.502H58.091C58.2626 111.502 58.4308 111.582 58.5759 111.733C58.7211 111.884 58.8374 112.1 58.9113 112.356C58.9853 112.611 59.0138 112.896 58.9938 113.177C58.9737 113.459 58.9057 113.725 58.7978 113.945L46.3432 139.344C46.2453 139.548 46.1208 139.713 45.9789 139.826C45.8371 139.94 45.6815 139.999 45.5238 140Z" fill="#DFBC88"/>
</svg>
